<svg xmlns="http://www.w3.org/2000/svg" xmlns:xlink="http://www.w3.org/1999/xlink" width="40" zoomAndPan="magnify" viewBox="0 0 30 30.000001" height="40" preserveAspectRatio="xMidYMid meet" version="1.0"><defs><clipPath id="dfa096770b"><path d="M 6 5.515625 L 24.144531 5.515625 L 24.144531 23.660156 L 6 23.660156 Z M 6 5.515625 " clip-rule="nonzero"/></clipPath></defs><g clip-path="url(#dfa096770b)"><path fill="#000000" d="M 15.769531 14.589844 L 23.96875 6.390625 C 24.0625 6.292969 24.109375 6.179688 24.109375 6.042969 C 24.109375 5.90625 24.0625 5.789062 23.964844 5.695312 C 23.871094 5.597656 23.753906 5.550781 23.617188 5.550781 C 23.484375 5.550781 23.367188 5.597656 23.269531 5.695312 L 15.074219 13.890625 L 6.875 5.695312 C 6.777344 5.597656 6.664062 5.550781 6.527344 5.550781 C 6.390625 5.550781 6.273438 5.597656 6.179688 5.695312 C 6.082031 5.789062 6.035156 5.90625 6.035156 6.042969 C 6.035156 6.179688 6.082031 6.292969 6.175781 6.390625 L 14.375 14.589844 L 6.175781 22.785156 C 6.082031 22.882812 6.035156 23 6.035156 23.136719 C 6.035156 23.269531 6.082031 23.386719 6.179688 23.484375 C 6.273438 23.578125 6.390625 23.625 6.527344 23.628906 C 6.664062 23.628906 6.777344 23.578125 6.875 23.484375 L 15.074219 15.285156 L 23.269531 23.484375 C 23.367188 23.578125 23.484375 23.628906 23.617188 23.628906 C 23.753906 23.625 23.871094 23.578125 23.964844 23.484375 C 24.0625 23.386719 24.109375 23.269531 24.109375 23.136719 C 24.109375 23 24.0625 22.882812 23.96875 22.785156 Z M 15.769531 14.589844 " fill-opacity="1" fill-rule="nonzero"/></g></svg>